<svg width="473" height="104" viewBox="0 0 473 104" fill="none" xmlns="http://www.w3.org/2000/svg">
<path d="M48.5781 85.195L85.6336 28.4015H0V85.195H48.5781Z" fill="white"/>
<path d="M165.118 28.4015L129.16 85.195H473V28.4015H165.118Z" fill="white"/>
<path d="M48.5781 85.195L85.6336 28.4015H0V85.195H48.5781Z" fill="#A2003A"/>
<path d="M413.59 41.2725H413.022V43.1653H413.59C414.186 43.1653 414.726 42.8909 414.726 42.2189C414.726 41.547 414.196 41.2725 413.59 41.2725Z" fill="#A2003A"/>
<path d="M365.712 46.8563C360.225 46.8563 355.779 51.3044 355.779 56.7935C355.779 62.2827 360.225 66.7307 365.712 66.7307C371.199 66.7307 375.645 62.2827 375.645 56.7935C375.645 51.3044 371.199 46.8563 365.712 46.8563Z" fill="#A2003A"/>
<path d="M232.295 45.4367H228.511V54.9007H232.295C235.294 54.9007 237.971 53.5474 237.971 50.1687C237.971 46.7901 235.294 45.4367 232.295 45.4367Z" fill="#A2003A"/>
<path d="M261.631 61.5255H272.037L266.834 45.4367L261.631 61.5255Z" fill="#A2003A"/>
<path d="M165.118 28.4015L129.16 85.195H473V28.4015H165.118ZM204.86 75.731L193.508 61.5255V75.731H184.048V37.8655H193.508V52.0615L204.86 37.8655H216.222L201.076 56.7935L217.159 75.7215H204.86V75.731ZM276.304 75.731L273.939 69.1062H259.748L257.383 75.731H250.288H247.45H238.936L228.53 61.5255V75.731H219.07V37.8655C219.07 37.8655 224.594 37.8655 233.26 37.8655C241.935 37.8655 246.504 42.323 246.504 49.2223C246.504 56.1216 243.354 59.2258 237.99 60.5791L248.245 73.3555L260.685 37.856H272.983L286.227 75.7215H276.304V75.731ZM318.402 60.5791C318.402 65.349 317.181 69.2955 313.672 72.8823C310.72 75.9203 306.444 76.6679 302.319 76.6679C298.204 76.6679 293.909 75.9203 290.967 72.8823C287.467 69.286 286.237 65.349 286.237 60.5791V37.8655H295.697V58.6863C295.697 63.5035 296.435 68.1503 302.319 68.1503C308.222 68.1503 308.941 63.5035 308.941 58.6863V37.8655H318.402V60.5791ZM346.792 46.3831H339.223V75.731H329.763V46.3831H322.195V37.8655H346.792V46.3831ZM365.712 76.6774C354.738 76.6774 345.846 67.7718 345.846 56.7935C345.846 45.8247 354.738 36.9191 365.712 36.9191C376.686 36.9191 385.578 45.8247 385.578 56.7935C385.578 67.7718 376.686 76.6774 365.712 76.6774ZM411.13 75.731H390.318V37.8655H399.778V67.2134H411.13V75.731ZM413.968 50.1687C410.317 50.1687 407.346 47.2065 407.346 43.5439C407.346 39.8908 410.317 36.9191 413.968 36.9191C417.62 36.9191 420.591 39.8908 420.591 43.5439C420.591 47.2065 417.63 50.1687 413.968 50.1687Z" fill="#A2003A"/>
<path d="M413.968 38.3387C411.093 38.3387 408.765 40.6763 408.765 43.5439C408.765 46.4209 411.093 48.7491 413.968 48.7491C416.844 48.7491 419.172 46.4209 419.172 43.5439C419.172 40.6763 416.844 38.3387 413.968 38.3387ZM415.104 47.3295L413.032 44.6796V47.3295H411.14V39.7583C411.14 39.7583 412.247 39.7583 413.978 39.7583C415.719 39.7583 416.447 40.9413 416.447 42.0296C416.447 43.118 415.813 44.0266 414.744 44.301L417.402 47.3295H415.104Z" fill="#A2003A"/>
<path d="M171.74 0H149.026L95.1033 85.195H117.808L171.74 0Z" fill="#2F599A"/>
<path d="M137.674 0H114.96L61.0277 85.195H83.7416L137.674 0Z" fill="#2F599A"/>
<path d="M184.048 91.252H188.958C191.607 91.252 193.442 92.4823 193.442 95.312C193.442 98.2269 191.872 99.5046 189.071 99.5046H187.255V103.593H184.048V91.252ZM187.255 96.9114H187.794C188.958 96.9114 190.103 96.9114 190.103 95.4067C190.103 93.8546 189.043 93.8356 187.794 93.8356H187.255V96.9114Z" fill="#2F599A"/>
<path d="M214.075 103.593H210.082L207.055 98.8421H207.017V103.593H203.81V91.252H208.597C211.038 91.252 212.883 92.416 212.883 95.047C212.883 96.7505 211.937 98.2175 210.186 98.5298L214.075 103.593ZM207.027 96.7789H207.339C208.38 96.7789 209.562 96.5802 209.562 95.2458C209.562 93.9019 208.38 93.7031 207.339 93.7031H207.027V96.7789Z" fill="#2F599A"/>
<path d="M236.921 97.1954C236.921 101.189 234.055 104 230.1 104C226.136 104 223.279 101.189 223.279 97.1954C223.279 93.4666 226.553 90.845 230.1 90.845C233.657 90.845 236.921 93.4571 236.921 97.1954ZM226.619 97.2048C226.619 99.3342 228.189 100.886 230.11 100.886C232.021 100.886 233.591 99.3342 233.591 97.2048C233.591 95.5013 232.021 93.9492 230.11 93.9492C228.189 93.9492 226.619 95.5108 226.619 97.2048Z" fill="#2F599A"/>
<path d="M250.581 93.9681V96.0313H254.101V98.7474H250.581V103.593H247.374V91.252H254.451V93.9681H250.581Z" fill="#2F599A"/>
<path d="M268.414 93.9681V96.0313H272.028V98.7474H268.414V100.877H272.226V103.593H265.207V91.252H272.226V93.9681H268.414Z" fill="#2F599A"/>
<path d="M289.936 94.4225C289.349 93.9303 288.593 93.6086 287.807 93.6086C287.221 93.6086 286.436 93.9493 286.436 94.6401C286.436 95.3594 287.306 95.6338 287.855 95.8137L288.678 96.0597C290.39 96.5708 291.714 97.432 291.714 99.4289C291.714 100.659 291.421 101.918 290.437 102.751C289.472 103.565 288.186 103.915 286.937 103.915C285.386 103.915 283.862 103.394 282.604 102.505L283.976 99.921C284.78 100.621 285.726 101.199 286.823 101.199C287.58 101.199 288.375 100.82 288.375 99.9589C288.375 99.0598 287.117 98.7475 286.426 98.5488C284.411 97.9715 283.087 97.4509 283.087 95.066C283.087 92.558 284.875 90.9302 287.344 90.9302C288.593 90.9302 290.106 91.3183 291.204 91.9429L289.936 94.4225Z" fill="#2F599A"/>
<path d="M308.97 94.4225C308.383 93.9303 307.626 93.6086 306.851 93.6086C306.264 93.6086 305.479 93.9493 305.479 94.6401C305.479 95.3594 306.34 95.6338 306.898 95.8137L307.721 96.0597C309.433 96.5708 310.758 97.432 310.758 99.4289C310.758 100.659 310.465 101.918 309.481 102.751C308.516 103.565 307.22 103.915 305.98 103.915C304.429 103.915 302.906 103.394 301.648 102.505L303.019 99.921C303.823 100.621 304.769 101.199 305.867 101.199C306.614 101.199 307.418 100.82 307.418 99.9589C307.418 99.0598 306.16 98.7475 305.47 98.5488C303.454 97.9715 302.13 97.4509 302.13 95.066C302.13 92.558 303.909 90.9302 306.387 90.9302C307.626 90.9302 309.15 91.3183 310.247 91.9429L308.97 94.4225Z" fill="#2F599A"/>
<path d="M324.447 103.593H321.24V91.252H324.447V103.593Z" fill="#2F599A"/>
<path d="M348.523 97.1954C348.523 101.189 345.666 104 341.702 104C337.748 104 334.881 101.189 334.881 97.1954C334.881 93.4666 338.154 90.845 341.702 90.845C345.25 90.845 348.523 93.4571 348.523 97.1954ZM338.221 97.2048C338.221 99.3342 339.791 100.886 341.702 100.886C343.622 100.886 345.183 99.3342 345.183 97.2048C345.183 95.5013 343.613 93.9492 341.702 93.9492C339.791 93.9492 338.221 95.5108 338.221 97.2048Z" fill="#2F599A"/>
<path d="M358.976 91.252H362.183L368.058 98.7948H368.086V91.252H371.294V103.593H368.086L362.212 96.0313H362.183V103.593H358.976V91.252Z" fill="#2F599A"/>
<path d="M385.493 101.445L384.642 103.593H381.246L385.985 91.252H389.485L394.13 103.593H390.706L389.902 101.445H385.493ZM387.735 95.0659H387.697L386.373 98.9935H389.041L387.735 95.0659Z" fill="#2F599A"/>
<path d="M407.29 100.877H411.14V103.593H404.092V91.252H407.299V100.877H407.29Z" fill="#2F599A"/>
</svg>
